<?xml version="1.0" encoding="UTF-8"?><svg id="a" xmlns="http://www.w3.org/2000/svg" viewBox="0 0 167.81424 140.11127"><defs><style>.c{fill:#fff;}</style></defs><path id="b" class="c" d="M133.63855,127.42578c.07825-.01758,.18561,.0683,.22461,.11328-3.05658,3.13281-6.9765,5.2793-10.73816,6.34961-2.79114,.79291-5.60162,.92578-8.47864,.60352-4.42566-.49609-8.32996-2.26953-11.99408-4.67773-2.19342-1.44147-4.36328-2.91797-6.5332-4.39459-2.49219-1.6972-5.24219-2.00775-8.13672-1.5351-1.56836,.16992-.37891,.92383-.13867,1.04291,3.88867,1.9043,7.54877,4.18561,10.96881,6.82428,2.32416,1.70502,6.4707,5.70312,6.4707,5.70312l-3.10162,2.65619s-2.36719-2.65228-3.39838-3.68359c-6.80475-7.08789-12.83014-10.20306-14.16614-10.9726-.23431-.13477-.45886-.26367-.6972-.26367-.23828,0-.46289,.12891-.69727,.26367-1.33594,.76953-7.36133,3.8847-14.16803,10.9726-1.0293,1.03131-3.39636,3.68359-3.39636,3.68359l-3.10364-2.65619s4.1485-3.99811,6.47272-5.70312c3.41992-2.63867,7.08008-4.91998,10.96869-6.82428,.2403-.11908,1.42969-.87299-.13861-1.04291-2.89459-.47266-5.64459-.16211-8.13666,1.5351-2.17004,1.47662-4.3418,2.95312-6.53522,4.39459-3.6621,2.4082-7.5664,4.18164-11.99407,4.67773-2.875,.32227-5.68561,.18939-8.47662-.60352-3.76172-1.07031-7.69141-3.23047-10.74799-6.36328,.039-.04492,.15619-.11719,.23431-.09961,.25977,.11517,.41986,.1972,.67188,.32812,4.54303,2.33789,9.33008,2.60938,14.25,1.66205,3.35938-.64648,6.48047-1.99219,9.60742-3.32806,2.2403-.95508,4.45306-2.00781,6.75977-2.76953,5.97852-1.97266,12.03711-1.94928,18.12109-.4082,.09961,.02734,.20312,.04102,.30859,.05463,.10352-.01361,.20905-.02728,.30859-.05463,6.08405-1.54108,12.14252-1.56445,18.12115,.4082,2.30658,.76172,4.51947,1.81445,6.75964,2.76953,3.125,1.33588,6.24811,2.68158,9.60754,3.32806,4.91986,.94733,9.70697,.67584,14.25-1.66205,.25189-.13092,.41211-.21295,.67175-.32812Zm14.35162-13.0293c-2.60162,1.99799-4.2774,2.6601-6.43561,3.40039-3.24409,1.11328-6.74017,1.33789-10.12891,1.51562-4.47845,.23438-8.80066,.42767-13.21478,1.14447l-.07031,.01184c-.2774,.04486-.4043-.07233-.31451-.16803,.01575-.01562,.04492-.03711,.06641-.04492,3.93561-1.44141,6.60944-4.4942,8.62311-8.32617,1.39453-2.6543,3.67773-7.8399,4.3125-8.6875,.01373-.01758-.00201-.18951-.04297-.22272-.29883,.09772-4.6308,3.78522-6.5976,5.61139-2.43951,2.26752-4.73645,4.68945-7.1778,6.95703-3.81445,3.64258-9.29883,5.24219-11.2851,5.75781-.04504,.01166-.13483,.04486-.15631,.07025-.05859,.07623-.08789,.14655-.09961,.17975-.00391,.01367,.00201,.02338,.01556,.02539,.02545,.00586,.06451,.01556,.0899,.02148,1.54102,.3515,5.99225,1.3183,8.27545,1.92773,3.51166,.94135,7.03119,1.73047,10.66986,1.98627,3.94141,.2774,7.86523-.13672,11.5293-1.50189,4.16602-1.55273,9.30078-5.2207,12.23242-9.61523,.00781-.01178,.01556-.03125,.00781-.03516-.12695-.06641-.27545-.02344-.29883-.00781Zm13.41412-20.56641c-.12109,.15619-2.31451,3.0293-7.69153,6.71088-2.60931,1.81842-5.0332,2.97662-7.90027,4.3067-3.57825,1.66211-6.66022,3.17963-9.70325,5.69922-.1972,.16211-.36127,.2851-.56049,.43158-.10736,.07812-.21289-.05469-.0957-.19135,.14844-.17194,4.625-4.7558,5.9707-14.4707,.46869-3.39062,.5351-7.05273,1.6347-10.32031,.03131-.10352-.03119-.21478-.0683-.26562-.00592-.00781-.03522,.01172-.04102,.01953-3.28906,3.76166-6.0274,9.61328-7.30469,13.27148-.9043,2.58978-1.76758,5.1933-2.70306,7.77148-1.26965,3.49799-2.92786,6.78119-5.6192,9.4433-.039,.04102-.24225,.25391-.24225,.25391,0,0-.0332,.0625-.04486,.16022,0,.00977,.01367,.0293,.02148,.02728,.38483-.06641,.63672-.10352,.88483-.15619,2.99609-.6192,5.97461-1.336,8.98816-1.83789,5.03723-.83978,9.4375-2.62891,13.49609-5.74414,4.07031-3.125,7.51575-6.76569,9.76373-11.42389,.58398-1.21088,1.13281-2.39648,1.49408-3.7226-.07611-.0293-.1972-.0235-.27917,.03711Zm5.875-23.11719c-1.29303,4.12299-3.63092,7.46088-7.04114,11.05078-2.67377,2.7597-7.82025,7.97852-10.19714,11.5976-.06647,.10162-.24426,.0567-.17786-.12689,1.14459-3.15039,1.63281-8.72272,.94732-13.04102-.58593-3.68359-2.19921-7.70319-2.59771-12.211-.00391-.02148,.00201-.02539-.0058-.04688-.0235-.05853-.12311-.19531-.18951-.20111-.00189,.01361-.04486,.07812-.15228,.42773-.77338,2.6192-1.74017,5.90039-1.90039,8.94727-.19531,3.67578,.49799,8.40228,.19531,12.18549-.35162,4.37109-.65039,8.69531-2.6543,12.66022-.00983,.01953-.01562,.04291-.02344,.06439-.04095,.10553,.07031,.30084,.07031,.30084,0,0,.01758-.00391,.02539-.00983,1.60741-1.02533,6.1875-3.7265,9.20703-5.74213,3.76947-2.51758,7.10345-5.50977,9.71088-9.2735,3.25592-4.70306,5.14648-10.36719,5.05078-16.13666-.00385-.19531-.01746-.53912-.039-.58203-.04297-.01758-.21875,.10742-.22845,.13672Zm-9.7149,2.48828c-.01373,.05469-.06049,.07812-.07623,.08398-.09369,.02734-.13861-.086-.13666-.11139,.14648-1.16791,.15625-2.60931,.07617-3.70697-.31451-4.31842-2.91992-7.89453-5.20508-11.48834-1.19141-1.875-3.2558-5.15228-4.13672-7.35938-.00781-.01947-.18158-.12891-.23438-.10541-.02344,.38672,.0567,1.6582,.14258,2.48041,.64062,6.1817,2.60938,12.23438,4.64648,18.10162,1.36334,3.92767,2.04491,7.29297,1.625,11.44525-.04486,.3457-.0567,.38281,.08789,.48834,.0058,.00391,.01361-.00983,.01752-.00391,1.39258-2.00983,4.10553-4.83008,5.77539-6.86523,1.81061-2.20319,10.92969-12.59766,6.4375-27.08008-.27136-.87311-.5957-1.62891-.70697-1.79297-.07031,.00195-.19141,.1817-.20514,.22845,.0274,10.41803-5.01166,14.89075-7.11517,22.01764-.40039,1.35736-.7168,2.61719-.99219,3.66797Zm-7.85352-32.38086c-1.6524-1.42773-4.11133-3.96875-5.55078-6.18365-.00983-.01758-.02155-.0293-.0332-.04095-.01953-.01953-.04102-.03711-.0625-.04883-.08984-.0567-.20514-.0625-.23633-.04688-.06641-.01172-.12109-.00781-.11719,.00781,.08978,.43359,1.52338,5.0293,2.44922,7.16986,1.33789,3.0899,3.48627,5.67969,5.5,8.3399,.14447,.1933,.29095,.3847,.43561,.58008,2.02136,2.7168,5.25385,8.5058,6.0332,11.4765,.02136,.08405,.20105,.16211,.20886,.12701,.2832-1.06061,1.5899-5.17969,2.55859-7.961,.20319-.57806,1.91803-6.16211,2.26373-8.57806,.97845-6.85352-1.28119-15.74615-5.28119-20.60553-.06641,.0235-.12311,.20123-.11145,.2403,.07434,.22852,.12701,.4043,.19342,.63281,.08789,.29877,.17188,.59961,.24219,.90619,1.04291,4.4649,.6933,7.6153,.18164,11.41211-.4082,3.0274-.99414,6.0235-.83795,9.07617,.02545,.50983,.33795,4.26764,.29102,4.41022-.05267,.16791-.20502,.039-.2226-.04889-.00592-.02728-.49219-1.39642-.98047-2.54291-.20312-.49811-.4082-.96881-.58014-1.30859-1.60541-3.1875-3.68158-4.8418-6.34369-7.01367Zm-4.41211-27.74615c1.2832,1.25201,2.28119,2.65045,2.97852,4.29102,1.10352,2.58789,1.42767,6.47864,2.14062,9.42194,.43555,1.78705,.70306,3.05267,1.33008,5.08197,.05658,.1778-.12891,.25983-.22272,.0899-.01556-.0235-.03119-.04492-.04877-.06641-2.0625-2.79492-4.62109-4.53912-8.26764-6.8399-2.16595-1.42181-3.81641-2.70886-5.3847-4.83588-.27148-.36523-.55078-.72272-.82617-1.08203-.02344-.0293-.18951-.08789-.24023-.06836-.00775,.08197,.0293,.24408,.0625,.45117,.4668,2.34961,2.04102,6.6972,4.73633,9.27338,1.93939,1.85162,4.11908,3.49615,6.18939,5.20905,3.69153,3.08978,6.38483,6.42578,7.25201,7.5293,.01367,.01556,.03906,.04297,.03906,.04297,0,0,.16602,.10541,.16211,.04681-.00195-.01361-.00195-.03119-.00391-.04492l.00391-.00385c-.05078-.54102-.07025-1.40045-.07025-2.41602,.00189-2.26172,.10345-5.28711,.20306-7.36914,.039-.8418,.0683-1.6875,.06439-2.53125-.0058-2.51373-.28711-4.99805-1.34369-7.38092-1.7168-3.86322-4.26947-6.93549-8.08789-8.83588-.22461-.11133-.52148-.22461-.71289-.27155-.00781-.00189-.0351,.1192,.01947,.2735,.00391,.01562,.01569,.02539,.0274,.0351Zm-15.81641-7.30267c2.21094,1.96478,3.98444,4.29102,5.64453,6.7265,1.5918,2.336,3.16602,4.70508,5.33008,6.58008,1.42969,1.44342,5.5918,4.6778,6.63281,5.48444,.01562,.01367,.03119,.0293,.04492,.03516,.0332,.01361,.08789-.00586,.08789-.00586,0,0-.0058-.0293-.00781-.04694-.21881-1.19525-2.09961-9.96289-7.58789-14.30267-2.94922-2.55078-6.86719-4.11328-10.67194-5.16211-.03894,.0722,.00391,.26172,.0274,.25781,.18365,.1601,.31641,.27148,.5,.43359ZM43.29486,125.55658c3.63861-.2558,7.1582-1.04492,10.66992-1.98627,2.2832-.60944,6.73438-1.57623,8.27539-1.92773l.08978-.02148c.01373-.00201,.01965-.01172,.01575-.02539-.01184-.0332-.04114-.10352-.09973-.17975-.02136-.02539-.11127-.05859-.1582-.07025-1.98431-.51373-7.46869-2.11523-11.2832-5.75781-2.44141-2.26758-4.73816-4.68951-7.17767-6.95703-1.9668-1.82617-6.29883-5.51367-6.5976-5.61328-.04114,.0351-.0567,.20703-.04303,.22461,.6347,.8476,2.91803,6.0332,4.3125,8.6875,2.01373,3.83197,4.6875,6.88477,8.62299,8.32617,.02155,.00781,.05084,.0293,.06641,.04492,.0899,.0957-.03705,.21289-.31439,.16803l-.07031-.01184c-4.41406-.7168-8.73639-.9101-13.21484-1.14447-3.38861-.17773-6.8847-.40234-10.12891-1.51562-2.1582-.7403-3.83405-1.4024-6.43555-3.40039-.02539-.01562-.17188-.05859-.29889,.00781-.00781,.00391,0,.02338,.00793,.03516,2.93158,4.39453,8.06641,8.0625,12.23236,9.61523,3.664,1.36517,7.58789,1.7793,11.5293,1.50189Zm-3.42188-9.0351c.24799,.05267,.5,.08978,.88477,.15619,.00781,.00201,.02155-.01752,.02155-.0293-.01184-.0957-.04504-.1582-.04504-.1582,0,0-.20306-.21289-.24408-.25391-2.68951-2.664-4.3457-5.94531-5.61719-9.4433-.93549-2.57819-1.80078-5.1817-2.70312-7.77148-1.2774-3.6582-4.01556-9.50781-7.30469-13.27148-.00592-.00781-.03522-.02734-.04102-.01953-.03705,.05084-.09955,.16211-.06836,.26361,1.09961,3.26959,1.16595,6.9317,1.63477,10.32233,1.3457,9.7149,5.8222,14.29877,5.9707,14.4707,.11719,.13666,.0097,.26947-.0957,.19135-.19727-.14648-.36328-.26758-.56061-.43158-3.04285-2.51959-6.125-4.03711-9.70306-5.69922-2.86719-1.33008-5.29102-2.48828-7.90039-4.3067-5.37689-3.68158-7.57031-6.55469-7.6933-6.71088-.08014-.06061-.20123-.06641-.2774-.03711,.36328,1.32611,.91022,2.51172,1.4942,3.7226,2.24799,4.6582,5.6933,8.29694,9.76361,11.42389,4.05859,3.11523,8.45898,4.90436,13.49609,5.74414,3.01367,.50189,5.99219,1.2207,8.98828,1.83789Zm-24.84369-19.95312c3.01947,2.01562,7.59961,4.7168,9.20697,5.74213,.00781,.00592,.02539,.00983,.02539,.00983,0,0,.11133-.19531,.07031-.30084-.00781-.02148-.01367-.04486-.0235-.06439-2.00391-3.9649-2.30267-8.28912-2.65417-12.66022-.3028-3.7832,.39056-8.5097,.19531-12.18549-.16211-3.04688-1.12891-6.32806-1.90045-8.94727-.10736-.34961-.15039-.41412-.1524-.42773-.06635,.0058-.16595,.14258-.18939,.20111-.00775,.02148-.00195,.02539-.00586,.04688-.39844,4.50781-2.01373,8.5274-2.5976,12.211-.68561,4.3183-.19733,9.89062,.9472,13.04102,.06635,.18359-.11334,.22852-.17773,.12689-2.37701-3.61908-7.52338-8.83789-10.19727-11.5976-3.4101-3.5899-5.74805-6.9278-7.04102-11.05078-.00983-.0293-.18549-.1543-.22662-.13672-.02338,.04291-.03711,.38672-.04102,.58203-.0957,5.76947,1.79504,11.43359,5.05084,16.13666,2.60736,3.76373,5.94141,6.75592,9.711,9.2735Zm-1.586-13.54297c.00391-.00592,.01166,.00781,.01758,.00592,.14453-.10754,.13281-.14465,.08789-.49036-.41986-4.15039,.26171-7.51758,1.625-11.44525,2.03711-5.86725,4.0058-11.91992,4.64648-18.09961,.08594-.82422,.16602-2.0957,.14252-2.48242-.05267-.0235-.2265,.08594-.23431,.10742-.88086,2.20508-2.94525,5.48438-4.13666,7.35736-2.28522,3.59381-4.89264,7.16992-5.20514,11.48834-.08008,1.09766-.07025,2.53906,.07611,3.70697,.00201,.02539-.04291,.13873-.13666,.11139-.01563-.00586-.0625-.0293-.07611-.08398-.27539-1.05078-.5918-2.31061-.9942-3.66797-2.1015-7.12689-7.14062-11.59961-7.11334-22.01764-.01355-.04675-.1347-.2265-.20496-.22845-.11139,.16406-.43561,.91986-.70709,1.79297-4.49225,14.48242,4.62695,24.87689,6.43561,27.08008,1.67175,2.03516,4.38464,4.85541,5.77728,6.86523Zm-6.52728-28.78711c.9726,2.7832,2.27728,6.90228,2.56049,7.96478,.00775,.0332,.1875-.04486,.20898-.12891,.7793-2.9707,4.01172-8.7597,6.03321-11.4765,.14447-.19537,.29102-.38678,.43561-.58008,2.01361-2.66022,4.16211-5.25,5.5-8.3399,.92566-2.14056,2.35931-6.73627,2.45111-7.16986,.00195-.01562-.05273-.01953-.11914-.00983-.03131-.01361-.14648-.00781-.23627,.04889-.02155,.01172-.04303,.0293-.0625,.04883-.01184,.00977-.0235,.02338-.0332,.04095-1.43951,2.2149-3.8985,4.75592-5.55084,6.18365-2.66205,2.17188-4.73828,3.82617-6.34375,7.01367-.17194,.33978-.37695,.81049-.58014,1.30658-.48816,1.1485-.97461,2.51764-.98041,2.54492-.01758,.08789-.16986,.2168-.22455,.04889-.04504-.14258,.26746-3.90039,.29486-4.41022,.15228-3.05267-.4317-6.04877-.8399-9.07617-.51166-3.79681-.86127-6.9472,.17969-11.414,.07031-.30267,.15631-.60553,.2442-.9043,.06641-.22852,.11914-.4043,.1933-.63281,.01172-.03906-.04486-.2168-.11127-.2403-4,4.85938-6.25982,13.75201-5.28118,20.60553,.3457,2.41595,2.06049,8,2.26172,8.57617Zm5.76947-15.08398c0,1.01556-.01947,1.875-.07031,2.41602l.00391,.00385c-.00201,.01373-.00201,.03131-.00391,.04492-.00592,.05859,.16211-.04681,.16211-.04681l.03912-.04297c.86707-1.10352,3.55859-4.43951,7.25189-7.5293,2.07031-1.71289,4.25-3.35742,6.18945-5.20905,2.69531-2.57617,4.26953-6.92377,4.73633-9.27338,.0332-.20709,.07031-.3692,.0625-.45117-.05078-.01953-.2168,.03906-.24017,.06836-.27539,.35931-.55475,.7168-.82434,1.08203-1.57031,2.12701-3.2207,3.41406-5.38666,4.83588-3.64655,2.30078-6.20514,4.04498-8.26764,6.8399-.01556,.02148-.0332,.04291-.04877,.06641-.09375,.16992-.2793,.08789-.2226-.0899,.62689-2.0293,.89447-3.29492,1.32996-5.08197,.71289-2.9433,1.03711-6.83405,2.14075-9.42194,.69714-1.64056,1.69525-3.039,2.9765-4.29102,.01367-.0097,.02539-.01947,.03125-.0351,.05273-.1543,.02539-.27539,.01764-.27148-.19153,.04492-.4903,.1582-.71289,.26953-3.81842,1.90039-6.37115,4.97266-8.08795,8.83588-1.0567,2.38287-1.33789,4.86719-1.34375,7.38092-.00189,.84375,.02539,1.68945,.06445,2.53125,.09961,2.08392,.20111,5.10742,.20312,7.36914Zm7.90632-14.5625s.05457,.01947,.08777,.00586c.01373-.00586,.0293-.0235,.04504-.03516,1.04095-.80664,5.20105-4.04102,6.63275-5.48444,2.164-1.87689,3.73834-4.24408,5.33014-6.58008,1.6582-2.43549,3.43347-4.76172,5.64447-6.7265,.18164-.16211,.31641-.27148,.5-.43561,.02148,.00592,.06641-.18359,.02728-.2558-3.80469,1.04883-7.7226,2.61133-10.67175,5.16211-5.48834,4.33978-7.3692,13.10742-7.58789,14.30267-.00201,.01764-.00781,.04694-.00781,.04694Zm61.82996,47.77539c.42975-.64648-.64246-1.05469-.92175,.0683-.26184,1.04498,.49017,.57617,.92175-.0683Zm11.70123-27.05469c-.41602-.2168-2.12701,1.86908-1.85352,2.20697,.12299,.13483,2.00391-2.10736,1.85352-2.20697Zm.36719-.36914c.25781,.1347,1.39258-.48248,1.18158-.6485-.20898-.16791-1.54285-.7851-1.57025-.4082-.039,.61334,.12891,.92194,.38867,1.0567Zm20.60944,18.06641c-.53711,.02344-1.1192,.80072-.95514,.81055,.38672,.01947,.68158,.29688,.99219,.22845,.57031-.12689,.5-1.06049-.03705-1.039Zm-7.46881-19.45319c-.46289,.01178-.58014,.51569-.13483,.7442,.19928,.10352,.83398,.0097,1.125-.17383,.3067-.19336,.66412-.43359,.59772-.90234-.03912-.28516-.70312-1.08984-.35553-1.39844,.375-.336,.75391,.18549,1.12109,.04291,.44733-.17377,.40631-.42963,.42004-.81049,.01746-.52728-.19342-1.2207-.80469-1.2207-.45514,0-1.24615,1.21869-1.28131,1.29297-.06055,.13281-.1875,.57812,.00775,1.03125,.27155,.63086,.16602,1.37109-.69525,1.39447Zm10.12311,.08398c-.01373,.28131,.79877,2.23834,.8808,2.77155,.08209,.5332,.25,2.13086,.67969,1.9668,.27148-.10553,.24609-1.08405,.1875-1.46295-.17383-1.11127-.39844-2.07214-.80859-3.32025-.2168-.66412-1.1582-2.83203-1.4707-2.75592-.27734,.06653,.4668,1.57819,.57617,2.07037,.0722,.32031-.0293,.4472-.04486,.73041Zm-5.34961-26.09961c.5,.18951,.49799-.74408-.35162-1.43359-.84381-.6875-1.96881-.35345-1.66412-.01355,.27545,.30457,1.57233,1.27728,2.01575,1.44714Zm-23.03333-6.61517c-1.00391-.6485-.164-1.54297-.96667-2.14447-.5625-.42194-2.13873-.00403-2.5293,.49597-.6778,.87701,.875,.586,1.4375,.836,.62891,.27728,1.97852,1.4375,2.21869,1.20312,.23828-.23633-.04883-.28711-.16022-.39062Zm6.10162-3.07031c-1.35162-.61719-6.44141-.5899-6.30859,.73431,.10938,1.13092,2.93945,.06842,3.67188,.00592,.73438-.06439,3.83014-.12689,2.63672-.74023Zm-14.89264,59.2226c-.06641-.25189-.50775-.21088-.39838,.02155,.10944,.23236-.13281,.46875,.09369,.75977,.29694,.3183,.9375,.2793,1.25983,.01562,.18561-.20123,.06836-.58203-.07233-.65619-.24408-.12115-.81641,.11127-.88281-.14075Zm-1.96088-10.125c.41992,0,.4043-.31439,.64838-.30267,.24609,.00977,.04504,.31842,.4707,.31842,.42194,0,.8653-1.08795-.49219-1.08795-1.10541,0-.95886,1.05664-.62689,1.0722Zm1.76172,1.125c-.84369-.2168-.67194,.26373-1.18939,.32031-.85754,.09381-.0957-.63281-.51764-.9668-.18561-.14642-.68951,.58789-.72656,1.04688-.02344,.2207-.0293,.96881,.33398,.99225,.36328,.02338,2.27338,.24219,2.91022,.38666,.72845,.16803-.0293-1.57806-.81061-1.7793Zm-9.4043,10.13873c.25977,0,.44727-.92194,.28705-1.375-.16205-.45312-.99799-.11334-1.07214,.09766-.07233,.21283,.52338,1.27734,.7851,1.27734Zm-12.32623-.0918c.03723-.39655,.00403-1.55664-.27338-1.78119-.27728-.22272-.24023,.19714-.43939,.17377-.1543-.01758-.14075-.5567-.336-.55469-.19531,0,.06641,.92188,.27539,1.45697,.20898,.53711,.72461,1.41412,.77338,.70514Zm-.29681-2.81641c.06445-.13672,.48633-2.06842,.42181-2.80664-.06641-.73639-.45886-1.43164-.55847-1.38086-.13293,.06836,.06049,.50977,.08386,1.22461,.03522,1.06836-.46869,1.95697-.46869,2.30859-.00201,.33197,.31641,1.08398,.52148,.6543Zm-32.91205-6.83014c0-15.63275,6.07996-30.32025,17.11907-41.35938C53.59759,6.08008,68.28711,0,83.91986,0s30.32031,6.08008,41.35944,17.11908c11.039,11.03912,17.11908,25.72662,17.11908,41.35938s-6.08008,30.32233-17.11908,41.35944c-11.03912,11.03906-25.72662,17.11908-41.35944,17.11908s-30.32227-6.08002-41.35938-17.11908c-11.03912-11.03711-17.11907-25.72662-17.11907-41.35944Zm18.01355,38.69922l6.35352-6.35352c-1.25-1.3183-2.42377-2.70898-3.51556-4.16205-.49225-.19531-.99225-.46875-1.33594-.89453-.54297-.6778-.82806-1.66992-1.086-1.66992-.2597,.00195-.02136,.6308-.59961,.71484-.78711,.11517-1.89838-1.8418-2.33197-2.55469-.51172-.83984-1.35162-.84766-1.76373-1.63483-.11908-.2265-.4043-.92181-.66791-.5097-.43555,.69922-1.92969-1.5235-2.31055-1.37109-.39264,.15228-.04694,.61517-.26764,.81049-.42767,.38092-1.68549-1.70306-2.15619-1.49017-.44141,.20117-.54297,.46881-.56842,1.02148-.02338,.57422,.6875,2.05078,.4375,2.16602-.35535,.16211-2.17377-4.46869-1.77728-4.67969,.2226-.11914,.1875,.211,.43939,.06055,.25983-.15625-.18158-.47656-.30066-.97858-.125-.52533-.58014-.53711-.6192-1.11517-.0351-.57623,.78705-.38281,.7774-.66412-.00983-.28119,.06439-.6015,.29675-.80267,.27155-.23444,.90631,.01166,1.04303-.80084,.11719-.6933,.4668-.05066,.53912,.4649,.08398,.5976,1.61127,.74799,1.68549,.33789,.04486-.25977-.61725-.25-.61725-.48047-.00189-.44141,.8399-.01953,1.41412,.03119,.25,.02148,.70123-.38281,1.27148-.08783,.62115,.3222,1.00391,.47852,1.41602,.54492-1.38281-4.2207-2.18561-8.70312-2.30658-13.35162h-8.94934c.3067,14.08014,5.7735,27.28912,15.5,37.44922Zm36.91602-51.8418c.0625,.0957-.58588,.68561-.91791,1.25793,1.0351-.38873,2.11133-.63873,3.2168-.74615v-8.97266c-5.0274,.28906-9.59961,2.30078-13.13477,5.45306l6.33398,6.33405c.72852-.59766,1.51947-1.11523,2.37109-1.54303,.2207-.10931,.4433-.21088,.66803-.30658,.43359-.75781,1.3808-1.60162,1.46277-1.47662Zm-22.11517,33.45319c.00195,.17773-.0058,.35352-.04303,.51953,.4649,.57031,.93951,1.13086,1.43951,1.66986l6.3457-6.34564c-2.98633-3.31055-5.06842-7.44922-5.86133-12.02545-.18945,.05084-.35938,.02545-.4649-.1582-.12885-.2226,.05865-.44916,.33215-.67578-.0918-.67377-.1582-1.35541-.19343-2.04492h-4.2246c.04303,.67194,.3125,1.64062-.13092,1.97852-.36517,.2774-.88275-.00391-1.21289,.04102-.81049,.10938-.99609,1.08789-.78119,1.75201,.14062,.44727,.33588,.79297,.25781,1.27539-.07233,.45306-.31842,.80658,.39838,1.18549,.65631,.34381,1.71881,1.69141,1.63092,1.92389-.11328,.29883-.76562-.2793-.80658,.26172-.02539,.33197,.96289-.09381,.90619,1.03119-.0332,.6543,.13086,1.37109,.32031,1.82031,.39056,.93561,.83984,1.5528,.80078,2.60748-.03119,.875-.18549,1.82812,.19733,2.65234,.39446,.84766,1.08588,1.53314,1.08978,2.53125Zm-5.27539-15.0957c-.52155-.59766,.3457-2.29688,.47455-2.63086,.13873-.35352,.92584-.80859,1.16211-1.33405h-3.7597c.0722,1.96686,.32031,3.90045,.7265,5.79102,.9024,.33014,2.63684-.40619,1.39655-1.82611Zm-2.35944,24.17773c-.02728,.01556-.05847,.02728-.08978,.03906,.3418,.38861,.68951,.77142,1.04492,1.14642l.7168-.7168c-.67194-.42383-1.29102-.69141-1.67194-.46869Zm15.37701-45.54694l-6.32812-6.32806c-5.2168,5.62109-8.50586,13.05267-8.81061,21.23236h4.43365c.74219-1.19525,.4903-2.10547,.73828-2.80078,.23828-.66211,.62891-1.26947,.99609-1.86517,.32617-.52539,.69733-1.11719,1.38092-1.12109,1.44525-.00781,1.80457-.76373,2.7207-1.18359,.91595-.41992,2.53711-.66803,2.35345-1.14655-.125-.3222-3.38275,.94141-3.45306,.69531-.12311-.43158,1.02728-.39062,1.51172-.82812,.09564-.08978,.18939-.14447,.27924-.18939,1.04681-2.37891,2.45905-4.56061,4.17773-6.4649Zm-1.14062,5.92194c.08594-.03711,.17194-.07812,.26172-.12891,1.08588-.62109,2.51367-.50201,3.12109-.23828,.7832,.3418,1.7851,1.21289,2.24023,1.56055,.19727,.15033,.29095-.12897,1.21289-.26758,.38477-.0567,.47272,.33008,1.02148,.4082,.2207,.03119,.40228,.04102,.56842,.0293l-5.51575-5.51367c-1.12299,1.25977-2.10144,2.6543-2.9101,4.15039Zm-6.211,6.81439c-.70111-.0722-1.41211,.21881-1.789,.82819-.26367,.42181-.33789,.89453-.24811,1.33978h3.20123c.03132-.60547,.08588-1.20508,.16022-1.79688-.41223-.21478-.9024-.32812-1.32434-.37109Zm9.12311,17.8028l6.33789-6.3399c-.51758-.62891-.9707-1.31049-1.36139-2.03119l-.00189,.00391c-.09961,.11517-.1836,.23236-.23438,.34369-.1308,.2832,.03906,1.22662-.35352,1.63092-.50592,.52338-1.86517-1.15234-2.29492-1.29102-.58398-.18359-.86328,.45898-.83197,.64447,.07806,.48242-.01959,.67584-.23053,.71881-.211,.04102-1.2735-.6817-.79877-.86328,.55267-.20898-.14459-.68561-.38293-.87109-.4101-.31641-1.05066-.02148-1.3515-.44141-.32227-.45123-.92969-.77539-1.11719-.83008-.12701-.03711-.75-.30084-1.1582-.08594-.32031,.17181-.66602-.1778-.90631-.41211-.13275-.12891-.26556-.2793-.40619-.42578,.7558,3.88672,2.55469,7.4043,5.0918,10.25Zm6.34369-10.94733c.00201-.05469,.00592-.11127,.01184-.16797,.00189-.01562,.00189-.03119,.00391-.04492,.00385-.04291,.00964-.08588,.01355-.12891,.00391-.01758,.00592-.03705,.00781-.05469l.01184-.08197c.00391-.01562,.0058-.0293,.00775-.04492,.00189-.01562,.0058-.0332,.00781-.04877,.00983-.05865,.02148-.11536,.0351-.17004v-.00391c.01184-.05267,.02539-.10541,.04114-.1543,.00385-.01758,.00964-.03119,.01355-.04675,.01184-.03522,.02155-.06842,.03522-.10162l.01758-.04688c.01361-.03125,.02545-.06055,.04102-.08795l.01764-.03705c.02136-.03711,.04285-.07233,.06635-.1015,.08203-.10364,.19141-.12311,.32031-.10553,.2226,.03119,.50189,.17578,.77344,.18939,.19525,.00983,.38666-.04681,.5528-.26172,.07611-.0976,.14636-.20898,.1972-.3183,.0528-.10938,.086-.2168,.08789-.30469,0-.04297-.00592-.08209-.02148-.1153-.04694-.0957-.17584-.12689-.42975-.039-.05267,.01764-.10345,.0351-.15619,.04883-.10547,.0293-.20899,.04877-.30859,.05267-.05078,.00201-.09772,0-.14447-.00781-.14075-.01947-.26373-.08197-.35754-.20898-.0293-.04291-.05658-.0918-.07996-.15039-.0293-.07422-.06451-.13861-.10553-.19531-.1582-.23041-.39062-.3457-.63281-.49017-.12109-.07233-.2442-.14844-.36328-.25201-.05859-.05072-.11719-.10742-.17188-.17181-.04493-.05078-.08795-.09961-.13281-.14648-.01764-.01758-.0351-.0332-.05273-.04883-.0293-.0293-.0567-.0567-.08789-.08398-.02149-.01959-.04486-.03906-.06641-.0567-.02539-.02136-.05078-.04102-.07617-.06049-.02728-.02148-.05273-.03912-.08014-.05859-.02148-.01373-.04486-.0293-.06824-.04303-.02936-.01947-.05865-.03711-.08997-.05267l-.05859-.0293c-.0332-.01562-.0683-.03131-.10144-.04492-.01575-.00586-.03131-.00977-.04694-.01569-.03912-.01172-.07806-.02533-.11719-.0332l-.02344-.00391c-.29889-.05658-.61139,.02148-.91406,.31451l-.01172,.00977c-.04688,.04681-.0957,.09961-.14258,.1582l-.01562,.01752c-.04688,.06061-.09381,.12311-.14056,.19543-.00201,.0058-.00592,.01166-.01184,.01746-.04681,.07422-.09369,.1543-.14056,.2403-.0976,.17975-.19141,.3808-.28125,.61914-.72656,1.90228-1.56836,1.32025-1.42969,1.99811,.01562,.07996,.2207,.13464,.51764,.15814,.11908,.0097,.25391,.01562,.39447,.01562,.14258,0,.29492-.00391,.44733-.01367,.1543-.00781,.31048-.02155,.46277-.04102,.07623-.00983,.15039-.02148,.22271-.0332,.04493-.00592,.08588-.01373,.12891-.02148,.04102-.00781,.08197-.01562,.12311-.02539l.10736-.02344c.04694-.01172,.08984-.02539,.13281-.03711,.02728-.00781,.05469-.01569,.07812-.0235,.06836-.02148,.13086-.04486,.18561-.07031,.0976-.04486,.19714-.08398,.29486-.11719l.0097-.00189c.09381-.03131,.1875-.05469,.2774-.07031,.18939-.03516,.36328-.0332,.5,.01562,.09961,.0351,.30469,.12109,.45123,.33398,.12109,.17383,.23627,.47461,.26355,.71478Zm8.5567-27.54486v-8.95312c-8.1817,.30469-15.61328,3.59369-21.23438,8.81049l6.33008,6.32812c3.99219-3.6015,9.1875-5.89252,14.9043-6.18549Zm0-11.45514V13.96289c-11.336,.31439-21.62695,4.88672-29.32806,12.17188l6.32806,6.32611c6.07422-5.66791,14.12891-9.23627,23-9.54492Zm-31.0957,4.98444c-7.28314,7.70117-11.85547,17.99219-12.16797,29.32806h8.95117c.30865-8.86908,3.87689-16.92377,9.54492-23l-6.32812-6.32806Zm-12.16797,31.82806c.12701,4.64264,.9707,9.10742,2.41992,13.29303,.0528-.00391,.10156-.00592,.1543-.00781,.9082-.04297,2.12305-.01367,2.69525-.45508,.88092-.67969,.06641-3.11133,.6192-4.125,.68164-1.25391,2.3847-4.22852,2.89655-4.24811,.45306-.01752,.43359,.32037,.664,.375-.27155-1.58588-.44141-3.1972-.49615-4.83203h-8.95306Zm43.26367,45.76562c-12.02539-.31439-22.94141-5.16602-31.0957-12.90228l-6.35345,6.35352c10.1601,9.72455,23.36908,15.19135,37.44916,15.49805v-8.94928Zm0-11.45111c-7.94141-.2735-15.41986-3.13666-21.47656-8.1778,.13666,.16614,.25586,.32623,.34772,.48053,.41205,.71088,1.84564,2.15625,.93359,2.73438-.75781,.47852-2.01373,.15619-2.71686,.14453-.77539-.00983-1.90234,1.14838-2.56635,1.26367-.8457,.14453-1.33014,.08008-2.12115-.2403-.19525-.08002-.44135-.23431-.72064-.43158l-1.00781,1.00775c7.70111,7.2832,17.99207,11.85553,29.32806,12.16992v-8.95111Zm0-3.14648c-1.25977,.09369-3.16406,.0625-3.6153-.24811-.93939-.65039-2.05859-1.289-2.18549-1.79291-.22662-.89459-1.45117-1.56641-1.45117-2.4043,0-.9317,1.28705-1.23639,.94336-2.1817-.27539-.75189,.45703-1.6933,1.79694-2.34961-3.9278-.9668-7.48053-2.89258-10.39264-5.51947l-6.3418,6.3418c5.82812,5.41412,13.28711,8.5,21.24609,8.79492v-.64062Zm1.93555-11.96289c.95306-.16022,1.96484-.43561,2.82416-.52148,.94141-.09375-.039,1.24609,.51959,1.30078,.66791,.06641,3.414,.5351,3.60742-.08789,.1582-.51172,.19531-.74219,.78522-.86914,1.11127-.24219,1.99207-.20709,2.93347-.92578,.3399-.25977,1.04114-.35352,1.24219-.73828,.20123-.38483-.14447-2.20514-.8222-1.9082-.33008,.14648-.72845,.61719-1.43359,.97272-.63867,.32025-1.0918,.46667-1.54486-.14075-.41412-.55267,.24207-.98627,.58197-1.35736,.52539-.57623,1.00189-1.16022,1.58594-1.16022,.22656,0,1.43359-.59961,1.33209-1.14838-.13293-.71094-1.53522,.06445-1.86139-.22852-.2265-.20123-.00391-.71289-.17975-.79102-.164-.07617-.68158,.6308-.28119,1.01373,.20703,.19916-.336,.75385-.94531,.35535-.46875-.31049-.5899,1.3985-.54889,1.711,.04114,.3125,.6875,.2265,.25793,.789-.4317,.56641-.5918,.14655-.91022,.42383-.38281,.336-.46869,.4649,0,.95117,.375,.38672-.2207,1.12115-.35944,.43365-.0918-.45703-1.05267-.31836-1.23425-.83594-.1875-.5332-.96882-.48047-1.91803-.9668-.71881-.3692-.62701,.7207,.5918,.99799,1.0351,.23639,.98242,.35944,.68549,1.00781-.24219,.53131-.19525-.4082-1.42578-.73431-.79102-.20898-.82806-.63086-1.45111-.62311-.63086,.00592-.42389,.60352-1.0899,.44733-.50385-.1192-.58197,.56049-1.04675,.75781-.56653,.24219-.5332,1.26758-1.10944,1.55078-.85736,.41992-2.6153,.10352-2.53516-.74609,.08007-.84961,.1192-1.48438,.61139-1.7832,.43347-.25977,1.14838,.50189,1.75,.23242,.62891-.2793,.4707-.94922,.08978-1.37891-.11328-.14648-.57422-.375-.56451-.51953,.00983-.1778,.90631-.26178,1.35944-.56641,.45508-.30469,.94336-1.11719,1.17578-1.29889,.24799-.1933,.73438-.24219,.7793-.42181,.0625-.22858-.34381-.64459-.30469-.92389s.13666-.49408,.35352-.47845c.2168,.01758,.47455,.64258,.336,.79297-.1582,.16992,.11316,.45703,.4082,.33588,.29675-.12109,1.34955-.53314,1.65619-.61328,.41595-.11127-.10352-1.05267,.03131-1.2207,.12689-.1582,.25,.05084,.4101-.10931,.16016-.16016-.32812-.31836-.25-.66016,.0567-.25781,1.1582-.55664,.85547-.75201-.30267-.1972-.71088,.37311-.95306,.48047-.54895,.24225-.81641-.35736-.79895-.8125,.00982-.22064,.30859-1.00189,.04694-1.1543-.36334-.20898-.42383,.7207-.48053,.9024-.08777,.27539-.3222,.62305,.08014,1.37305,.2168,.4043,.10547,1.77338-.31641,1.92377-.44922,.16211-.64655-.69531-.85742-1.04877-.03522-.06055-.07233-.10553-.11127-.12695l-.01184-.00586c-.01752-.00781-.0351-.01172-.05457-.00983h-.00201c-.01953,.00201-.03912,.01373-.05859,.0293l-.01562,.01373c-.02148,.01947-.04102,.04297-.06451,.07806-.0351,.05475-.0918,.15039-.13855,.23242-.0332,.05859-.09961,.19733-.18365,.4375-.0528,.1524-.1485,.2442-.31836,.28131-.45898,.05078-.92194,.08197-1.39453,.08197-.1817,0-.36328-.00391-.54297-.01166,.07617,.28125,.15631,.58588,.25977,.7832,.24805,.46875,.7226,.84766,.64264,1.19336-.08014,.3476-1.5293,.66211-1.6485,.4082-.14844-.31641,.36517-.95117,.32416-1.23828-.07416-.52344-.33789-.83594-.30469-1.19922-2.55658-.25592-4.89252-1.26959-6.77527-2.81842l-6.3399,6.3399c3.12701,2.7851,7.06061,4.68164,11.4043,5.2832,.61328-.375,.86517-1.04498,1.34961-.6817,.77148,.58209,1.70117-.19525,2.31641-.29877Zm.56445,15.10736v8.95312c3.625-.1015,7.14453-.63861,10.50781-1.56049-.69922-.59381-1.01758-1.55664-1.88281-1.85352-1.48828-.51172-1.88867-1.4278-1.08398-2.75592,.43549-.7168,.26373-1-.24609-1.76367-.62109-.92963-1.42377-1.35541-2.00592-1.60742-1.72461,.32233-3.48816,.52539-5.289,.58789Zm4.29694-2.94525c-.29303-.31641-.88684-.33984-1.3067-.22662-1.45514,.39459-.96869-.76172-2.99023-.4668v1.13867c1.45905-.05469,2.89264-.20898,4.29694-.44525Zm33.15027,7.84961l-6.35352-6.35352c-3.27539,3.10736-6.99799,5.74799-11.05859,7.81836-1.33789,1.0097-2.9726,1.74414-4.20898,2.30463-.51752,.23438-1.07806,.54108-1.66602,.54108-.18939,0-.35345-.0625-.51746-.16406-4.3067,1.44141-8.88684,2.27728-13.64264,2.40228v8.94928c14.08014-.3067,27.289-5.7735,37.4472-15.49805Zm-12.52527-64.73053c-.01184,.0528-.03912,.08209-.07233,.10358,1.47461,1.5918,2.80078,3.32031,3.96869,5.1601,.13684-.17377,.2442-.32806,.43359-.11127,.31641,.36127-.32996,1.01758,.60754,.8457,.56439-.10352,.44916,.61908-.00793,1.00592,.28912,.52136,.56842,1.04877,.83209,1.58386,.33002,.1485,.58002,.32819,.6308,.54303,.1485,.62891,.4375,1.32617,.50781,2.02148,.44733,1.12689,.8418,2.28119,1.17584,3.46088,.461-.39447,.98047-.17969,1.03516,.47852s-.1543,1.37109-.44141,1.961c.40045,1.93549,.65045,3.92578,.7207,5.96088h8.95111c-.16211-5.79486-1.46088-11.52728-3.78711-16.79486-.17767,.14258-.41595,.1543-.7168,.53522-.45306,.57214-1.18549-.14264-1.58777-.64264-.75-.92578-2.51575-3.5293-3.31061-3.66022-.66412-.10938-1.16022-.9726-1.85944-1.11517-.69714-.14258-1.5683-.53522-1.68158-1.2735-.1192-.7558-.39447-1.06641-1.16992-1.1875-.87695-.1347-1.48828-.48242-2.10547-1.13861l-2.14258,2.14264c.01758,.04675,.0274,.08777,.01959,.12097Zm5.68158,54.35162l.49017,.49017c7.28522-7.69922,11.85742-17.99017,12.16992-29.32812h-8.95111c-.30859,8.87115-3.87695,16.92584-9.54486,23.00201l3.23041,3.23041c.0235-.04492,.04486-.08978,.06635-.1347,.26764-.56641,.1524-1.3067,.19733-1.82617,.02728-.33984,1.25983-.25781,1.34772,.30267,.07416,.47272,.3183,.82031,.74597,1.9942,.30859,.8457,.45514,1.62299,.24811,2.26953Zm-6.79688,5.58588c-.23633,.56842-1.43359,1.5918-1.2265,1.9278,2.41602-1.53711,4.67566-3.29688,6.74799-5.25592l-6.32812-6.32617c-.44141,.41217-.89648,.80859-1.35938,1.19928-.10943,.72461-.00982,1.29291,.88093,1.5683,.96088,.29694,2.56439,1.2735,2.2265,2.2207-.37891,.84772-1.31641,2.11719-1.76953,2.95905-.38483,.71875,1.11328,1.02539,.82812,1.70697Zm1.47656-37.03711c-.01367,.03711-.03705,.07623-.06451,.11328h6.59186c-.03516-.95117-.11523-1.89258-.22852-2.82416-.05273,.09766-.10944,.19531-.1543,.29102-.49219,1.0235-.56641,.40625-.53119-.039,.04675-.56842,.26355-1.09973,.47461-1.6817-.05084-.30475-.10554-.60553-.16602-.90625-.19733,.28125-.48254,.48041-.92975,.70312-.29095,.14838-.56635,.83398-.67389,1.0957-.12689,.31641-.8515-.07422-1.4472,.21289-1.04486,.50391-2.1153,.58008-1.35156,1.66211,.48828,.68939-1.16992,.49609-1.51953,1.37299Zm-2.2832-21.11908l-6.32806,6.32806c1.08777,1.20715,2.05457,2.52545,2.8847,3.93365,.7442,.11517,1.75977,.41406,2.41406,1.25586,.46289,.5976,1.79883,1.79291,1.59369,2.32812-.125,.32806,.1543,.73438,.45905,.94916,.4668,.32623,.79688,.31842,1.05267-.00775,.4668-.5957,.53333-1.40039,1.1524-1.9082,.75781-.625,2.31049,1.17969,2.30859,1.50977-.00201,.33002-.4024,.4082-.51758,.99414-.15619,.80078-.84369,1.75586-.0625,2.02338,1.13867,.38867,1.2832-.05847,1.83008-.85931,.25189-.3692,.19733-.9649,.46869-1.33008,.17194-.23053,.4278-.32812,.65631-.48053-.42767-1.77539-.9942-3.49799-1.69531-5.14838-.16797-.16412-.36328-.29883-.60736-.37891-.40833-.13477-.1778-.5-.71289-.66797-.61334-.1933-.85162-.36914-.9082-1.44531-.04504-.86719,.73236,.28516,.92566,.13477,.04114-.0332,.07825-.08398,.1153-.14258-1.3653-2.58398-3.05859-4.9649-5.0293-7.08789Zm-7.6778,8.5918c-.30066-.00391-.54877-.0625-.76746-.14648l-2.09186,2.0899c.40045,.10736,.84375-.04114,1.34375,.18158,.5567,.24408,.28516-1.55469,1.13666-1.39062,.8692,.16602,1.0918,.72461,.37311,.99609-.57617,.1875,.14264,.66791-.55469,.9043-.63483,.2168,.51562,.77734,.50592,1.02734-.01184,.3457-.86725,.47461,.41791,.87109,1.28314,.39648,.00385-1.08014,.19916-1.28711,.23834-.25201,.92389,.39838,1.11334,.11133,.07025-.10553,.19727-.289,.35345-.5-.59961-1.00781-1.2793-1.96484-2.0293-2.85742Zm-3.26166,33.22656c.01556,.43945-.42773,.08783-.5625,.23822-.1347,.14648,3.51959,1.85748,4.09375,1.95514,.39264,.06635,1.14062,.34564,2.46295,.08197,.88666-.17572,1.13275,.23248,1.54675,.2168,.5899-.02142,.97272-.8183,1.31451-1.30859,.90619-1.29291,.73438-1.46667,.9746-1.66791,.30659-.25781,1.19727,1.7207,1.08399,2.97461-.01947,.19922-.04297,.38477-.07031,.5625l.0957,.0957c5.2168-5.62109,8.5058-13.05273,8.81055-21.23444h-6.80475c.23444,.38672,.64075,.88672,1.06842,1.76953,.34369,.70709,.54694,1.83008,1.125,1.88483,.93158,.08789,1.89062,.85938,1.91803,1.50775,.05469,1.35553-4.15045,1.68359-4.70325,1.50983-.46478-.14648-.77338-.17773-.80457,.55078-.03522,.82611-1.51959,.83203-2.10364,1.32611-.65619,.55469-.72845,1.56842-1.16791,2.27539-.26367,.42389-1.81635,1.89069-2.2403,2.1875-1.01166,.70709-2.91595,.74219-2.04486,1.20898,.62109,.33215,2.03131,.44922,1.85345,.12115-.20306-.37695,.10742-.41211,.3457-.10352,.18365,.23236,.8457-.22461,.83215-.65039-.01373-.40234-.10162-1.05859,.27136-1.08405,.60553-.039,1.24219-.71088,1.54303-.64838,.3418,.07031,.80469,.83008,.45697,3.14447-.34369,2.31641-1.44922,3.92786-1.89056,4.65436-.4765,.77734-.95312,.18359-1.5918-.14453-.8125-.41797-2.03711-.40039-2.89264-.67969-.45306-.14648-2.93347-1.08594-2.91986-.74414Zm42.65234-18.086h-8.94727c-.3164,12.02545-5.16802,22.94141-12.90429,31.0957l6.35352,6.35352c9.72656-10.1601,15.19336-23.36908,15.49805-37.44922Zm-15.49805-39.94714l-6.62891,6.62885c.60736,1.05865,1.74811,2.39252,3.35736,4.03125,.66022,.67377,1.36145,1.33398,1.94934,1.92969,.56439,.56836,4.17957,5.06641,3.48041,5.71869-.05084,.04889-.10541,.09381-.16016,.13867,2.8125,5.90631,4.375,12.41602,4.55072,19h8.94928c-.30469-14.08008-5.77148-27.289-15.49805-37.44714Zm-39.21484-8.31842c7.47852,.19342,14.6582,2.12299,21.08014,5.5918,.59961-.09381,1.19141-.16803,1.58777-.35352,.79694-.37109,2.36328,.4726,3.1192,.91211,.68939,.39838,1.22461,.98828,1.98242,1.414,.77539,.43561,2.02148,1.68561,2.29486,2.94537,.27545,1.2597,1.07422,1.17383,.67584,1.68365-.19922,.25385,.10547,.3515,.48627,.57806l6.22272-6.2207c-10.16022-9.72656-23.36908-15.19336-37.44922-15.49811V11.46289Zm0,11.45306c7.5957,.26373,14.58789,2.92383,20.25781,7.24036-.64056-.84772-1.28912-1.72473-1.5899-2.04694-.54877-.58398-2.60352-1.3028-2.39636-1.63672,.20496-.336,2.0332,1.12305,2.35345,.86713,.3847-.30847-.91797-1.98431-.82025-2.04883,.13464-.08789,1.67767,1.4024,2.43549,2.73834,.31641,.4707,1.15631,.23236,1.81061,.6875,.57605,.4043,.61517,1.05078,1.09955,1.4668,.07812,.06836,1.10352,.66022,.50781,.5918-.17188-.01953-.43561-.38483-.63281-.19922-.12305,.11719,.07422,.74609,.42773,1.43359l2.97272-2.97461c-.4317-.875-1.2832-2.0293-1.87701-2.17578-.61328-.15039-.99023,.36523-1.41211,.71478-.42188,.34961-.94922,.4668-1.01556,.23242-.07422-.26562,.08588-.91602,.05469-1.18939-.04303-.3418-.31061-.61133-.40045-.94141-.21289-.7774,.10352-1.64447-.3692-2.16022-.51947-.56641-.86719-1.42377-1.27338-2.07416-.44342-.70905-1.24219-1.80475-1.28912-2.73444-5.79095-2.92767-12.19135-4.5625-18.84369-4.74408v8.95306Zm0,11.45514c5.71484,.29297,10.91211,2.58398,14.9043,6.18549l6.33014-6.32812c-5.62311-5.2168-13.0528-8.5058-21.23444-8.81049v8.95312Zm0,11.47461c.8515,.08398,1.68939,.25586,2.5058,.50775,.21289-.52148,.74609-.78119,1.18359-1.07806,.51764-.35162,.89264-.74811,.81842,.20697-.06842,.67194-.34772,1.07812-.69531,1.35162,.87689,.38281,1.71094,.85938,2.48633,1.43359,.16986,.12689,.33588,.2597,.5,.39453l.85938-.85944c-.00781-.0293-.01556-.05859-.01556-.0957,.01556-.48816,.7226-1.07031,1.539-1.42767l2.79095-2.79102c-.0625-.01367-.1308-.02539-.21088-.03522-.375-.04675-.9082,.73053-1.27338,.51575-.41223-.24036,1.23236-1.68951,1.9668-1.41022,.09961,.03711,.20886,.08008,.3222,.125l.35547-.35553c-3.53522-3.15228-8.10547-5.164-13.13281-5.45306v8.9707Zm-1.25,2.4375c-1.04889,0-2.06641,.15625-3.04297,.46088-.12891,.14069-.22662,.25787-.15228,.36328,.24609,.35944,.99609-.39447,1.09564,.29895,.07422,.50385-.83008,.13275-.74805,.50385,.06635,.29681,.69336,.17383,.70898,.58203,.01367,.375-.37891,1.11127-.68158,1.30469-.4024,.25781-2.54694,.54102-2.75201,1.039-.17969,.43561-.36719,.82819-.70312,1.18561-.36517,.38483-2.086,1.40619-2.0899,1.67188-.0097,.62695,.82623-.17188,1.05859-.41797,.3692-.39062,.87701-.38873,1.42975-.70508,.76166-.43365,1.05469,1.08398,.23828,1.13867-.50983,.0351-.93939,1.4668-1.73828,1.19141-.20111-.07031-.76953-.42194-.89264-.05859-.1308,.38666,1.1875,.44727,1.60162,.7207,1.05267,.69531-.79883,.64648-1.0957,.83588-.29303,.1875-.14844,.5918,.25201,.4278,.38666-.16022,.91205-.56451,1.15228,.0918,.32422,.88861-1.46288,4.1308-1.98242,3.789-.2832-.18549-.57617,.07819-.8418,.19141,.35553,.73639,.80273,1.41998,1.31641,2.04694,.35162-.58014,.90619-1.40045,1.14062-1.40625,.33197-.00977,.2207-.27148,.3457-.50586,.1543-.2832,.54877,.01367,.57617-.37305,.02728-.38477,1.01172-.9375,1.125-1.50385,.05859-.30475-.30469-.60754-.1543-.85944,.18359-.3067,.31641-.35352,.51373-.41992,.19714-.06836,.66394,.39642,.80658,.19531,.14258-.20117,.83789-.04688,1.36908,.289,.24219,.1543,.71289-.02338,1.00201,.38672,.40039,.56451-.01953,.61328,.05267,.73828,.07031,.125,.2442-.07031,.34961,.0332,.22473,.21881-1.04291,.961-.89838,1.3653,.14258,.40234-1.07422,2.39453-1.4082,2.71094-.45898,.41797-1.2168-.04883-1.51562,.03711-.32227,.0918-.38477,.36719-.88086,.24609-.38281-.0918-.8418,.0625-1.26562,.26367,1.79303,1.57422,4.14062,2.5332,6.70898,2.5332,.55273,0,1.09369-.05078,1.62115-.13672,.32996-.42389,.46674-.94525,.53705-1.47858,.04102-.289-.00977-.664,.14264-.92181,.1308-.21881,.96277-1.24219,1.29486-1.22852,.29102,.01172,.49023,.26752,.9101,.13672,.81451-.25592,1.31842-.03906,1.32623,.3125,.01166,.49023-1.02539,.34961-.98242,.625,.02728,.1933,.7793,.48444,1.02539,.20312,.46094-.51953,.39264-1.20123,.27344-1.34961-.32623-.41211-.30664-.58203,.16211-.42194,.28906,.09961,.28705-1.04095,.5625-1.47845,.375-.58789-.6933-.17584-1.13861-.11334-.42004,.05865-.76764-.83789-.7774-1.15228-.00781-.22656,.79688,.80078,1.20306,.8222,.45905,.0235,1.00201-.5097,1.00781-.90027,.00983-.39075-.875-.44342-1.0097-.91803-.07416-.25983,.71869-.00201,.6582-.25781-.05079-.22461,.08014-.76569-.41986-.98047-.49811-.21289-.95514-1.80859-1.35364-1.91803-.35352-.0957-.64838,.38281-.86517,.55859-.21484,.17389-.55859-.12689-.37891-.29291,.25592-.23828,.84961-.75,.97272-1.15234,.20697-.67584,1.07605,.03516,.92175-.9082-.16595-1.02155-1.03711-.82422-.63275-1.31641,.41406-.5,.10547-1.31439-.73633-1.15234-.38867,.07422-.79688-.55859-.83789-1.10547-.02539-.30078-.88873-.25391-.85553-.57233,.06842-.65039-.90619-.71869-1.50189-.67377-.5957,.04297-1.74811-.875-1.87701-1.09961-.12689-.22662-.95496,.19922-.68158-.67578,.26953-.86133,1.08588,.15625,1.42969-.0918,.37115-.26562,.2558-.53711,.19531-.74615-.06641-.00189-.13092-.00775-.19531-.00775ZM45.2207,18.01367l6.35345,6.35352c8.1543-7.73633,19.07031-12.5899,31.0957-12.9043V2.51556c-14.08008,.30475-27.28906,5.77155-37.44916,15.49811ZM27.95496,57.22845h8.94934c.31439-12.02539,5.16791-22.94135,12.90228-31.09369l-6.35352-6.35345c-9.72461,10.15814-15.19141,23.36707-15.49811,37.44714Z"/></svg>